<svg xmlns="http://www.w3.org/2000/svg" style="display:none"><symbol id="tweet" viewBox="0 0 512.002 512.002"><path d="M512.002 97.211c-18.84 8.354-39.082 14.001-60.33 16.54 21.686-13 38.342-33.585 46.186-58.115a210.29 210.29 0 0 1-66.705 25.49c-19.16-20.415-46.461-33.17-76.674-33.17-58.011 0-105.042 47.029-105.042 105.039 0 8.233.929 16.25 2.72 23.939-87.3-4.382-164.701-46.2-216.509-109.753-9.042 15.514-14.223 33.558-14.223 52.809 0 36.444 18.544 68.596 46.73 87.433a104.614 104.614 0 0 1-47.577-13.139c-.01.438-.01.878-.01 1.321 0 50.894 36.209 93.348 84.261 103a105.245 105.245 0 0 1-27.674 3.687c-6.769 0-13.349-.66-19.764-1.888 13.368 41.73 52.16 72.104 98.126 72.949-35.95 28.176-81.243 44.967-130.458 44.967-8.479 0-16.84-.496-25.058-1.471 46.486 29.807 101.701 47.197 161.021 47.197 193.211 0 298.868-160.062 298.868-298.872 0-4.554-.104-9.084-.305-13.59 20.526-14.809 38.335-33.309 52.417-54.373z"/></symbol><symbol id="social-media" viewBox="0 0 458.867 458.867"><path d="M404.75.027H55.731C25.664.027 0 28.27 0 58.245V407.49c0 29.965 25.664 51.351 55.731 51.351H404.75c30.066 0 54.117-21.386 54.117-51.351V58.245c0-29.975-24.051-58.218-54.117-58.218zM393.955 65.57c8.699 0 15.752 7.053 15.752 15.752v50.436c0 8.699-7.053 15.752-15.752 15.752h-50.443c-8.699 0-15.752-7.053-15.752-15.752V81.322c0-8.699 7.053-15.752 15.752-15.752h50.443zm-163.184 79.999c48.631 0 88.05 39.334 88.05 87.832 0 48.506-39.419 87.839-88.05 87.839-48.622 0-88.05-39.333-88.05-87.839 0-48.498 39.427-87.832 88.05-87.832zm178.936 250.207c0 7.046-7.489 13.912-14.559 13.912H66.407c-7.067 0-17.246-6.866-17.246-13.912V196.663h47.282c-3.219 16.391-4.956 24.035-4.956 36.738 0 76.617 62.479 138.934 139.283 138.934 76.811 0 139.292-62.332 139.292-138.949 0-12.688-1.738-20.332-4.941-36.723h44.586v199.113z"/></symbol><symbol id="facebook-letter-logo" viewBox="0 0 430.113 430.114"><path id="Facebook" d="M158.081 83.3v59.218h-43.385v72.412h43.385v215.183h89.122V214.936h59.805s5.601-34.721 8.316-72.685H247.54V92.74c0-7.4 9.717-17.354 19.321-17.354h48.557V.001h-66.021C155.878-.004 158.081 72.48 158.081 83.3z"/></symbol><symbol id="supermarket" viewBox="0 0 512.001 512.001"><path d="M404.054 383.278H198.553l-12.701-50.805h268.561l57.588-230.353H128.264l-20.241-80.965H0v30.159h84.475l83.292 333.168c-24.247 5.207-42.482 26.8-42.482 52.58 0 29.656 24.127 53.783 53.784 53.783s53.784-24.128 53.784-53.783a53.441 53.441 0 0 0-5.48-23.625H355.75a53.441 53.441 0 0 0-5.48 23.625c0 29.656 24.128 53.783 53.784 53.783s53.784-24.128 53.784-53.783c-.001-29.656-24.129-53.784-53.784-53.784zM135.803 132.279h337.57l-42.509 170.034H178.312l-42.509-170.034zm43.266 328.407c-13.027 0-23.625-10.598-23.625-23.624 0-13.027 10.598-23.625 23.625-23.625s23.625 10.598 23.625 23.625c0 13.026-10.598 23.624-23.625 23.624zm224.985 0c-13.027 0-23.625-10.598-23.625-23.624 0-13.027 10.598-23.625 23.625-23.625s23.625 10.598 23.625 23.625c-.002 13.026-10.599 23.624-23.625 23.624z"/></symbol><symbol id="magnifying-glass-browser" viewBox="0 0 483.083 483.083"><path d="M332.74 315.35c30.883-33.433 50.15-78.2 50.15-127.5C382.89 84.433 298.74 0 195.04 0S7.19 84.433 7.19 187.85 91.34 375.7 195.04 375.7c42.217 0 81.033-13.883 112.483-37.4l139.683 139.683c3.4 3.4 7.65 5.1 11.9 5.1s8.783-1.7 11.9-5.1c6.517-6.517 6.517-17.283 0-24.083L332.74 315.35zM41.19 187.85C41.19 103.133 110.04 34 195.04 34c84.717 0 153.85 68.85 153.85 153.85S280.04 341.7 195.04 341.7 41.19 272.567 41.19 187.85z"/></symbol><symbol id="alarm-clock" viewBox="0 0 58.153 58.153"><path d="M40.076 29.153h-7.142a3.995 3.995 0 0 0-2.858-2.858V16.153a1 1 0 1 0-2 0v10.142c-1.72.447-3 1.999-3 3.858 0 2.206 1.794 4 4 4 1.858 0 3.411-1.28 3.858-3h7.142a1 1 0 1 0 0-2zm-11 3c-1.103 0-2-.897-2-2s.897-2 2-2 2 .897 2 2-.897 2-2 2z"/><path d="M50.188 9.764l4.096 4.096a1 1 0 0 0 1.414 0c3.167-3.166 3.167-8.319 0-11.485s-8.319-3.166-11.485 0a.997.997 0 0 0 0 1.414l4.561 4.561-1.699 1.699c-4.78-4.284-11.089-6.896-17.998-6.896s-13.218 2.612-17.998 6.896l-1.7-1.699 4.561-4.561a.997.997 0 0 0 0-1.414c-3.166-3.166-8.318-3.166-11.485 0s-3.167 8.319 0 11.485a1 1 0 0 0 1.414 0l4.096-4.096 1.676 1.676c-4.679 4.857-7.565 11.453-7.565 18.713 0 9.898 5.357 18.564 13.321 23.265l-3.028 3.028a.999.999 0 1 0 1.414 1.414l3.45-3.45c3.578 1.754 7.597 2.743 11.843 2.743s8.265-.989 11.843-2.743l3.45 3.45a.997.997 0 0 0 1.414 0 .999.999 0 0 0 0-1.414l-3.028-3.028c7.964-4.701 13.321-13.367 13.321-23.265 0-7.26-2.886-13.856-7.565-18.713l1.677-1.676zm4.095-5.975c2.146 2.146 2.362 5.502.649 7.893L46.391 3.14a6.13 6.13 0 0 1 7.892.649zM3.22 11.681c-1.713-2.39-1.497-5.746.649-7.892s5.502-2.361 7.892-.649L3.22 11.681zm25.856 43.472c-13.785 0-25-11.215-25-25s11.215-25 25-25 25 11.215 25 25-11.214 25-25 25z"/><path d="M29.076 10.032a1 1 0 0 0 1-1v-1a1 1 0 1 0-2 0v1a1 1 0 0 0 1 1z"/><path d="M29.076 50.032a1 1 0 0 0-1 1v1a1 1 0 1 0 2 0v-1a1 1 0 0 0-1-1z"/><path d="M50.076 31.032h1a1 1 0 1 0 0-2h-1a1 1 0 1 0 0 2z"/><path d="M8.076 29.032h-1a1 1 0 1 0 0 2h1a1 1 0 1 0 0-2z"/><path d="M43.926 13.768l-.707.707a.999.999 0 1 0 1.414 1.414l.707-.707a.999.999 0 1 0-1.414-1.414z"/><path d="M13.52 44.174l-.707.707a.999.999 0 1 0 1.414 1.414l.707-.707a.999.999 0 1 0-1.414-1.414z"/><path d="M44.633 44.174a.999.999 0 1 0-1.414 1.414l.707.707a.997.997 0 0 0 1.414 0 .999.999 0 0 0 0-1.414l-.707-.707z"/><path d="M14.227 13.768a.999.999 0 1 0-1.414 1.414l.707.707a.997.997 0 0 0 1.414 0 .999.999 0 0 0 0-1.414l-.707-.707z"/></symbol><symbol id="ebook" viewBox="0 0 80 80"><path id="Book" d="M33.3 29.607c-.6 2.5-3.7 1.1-2.4 1.4l-19.7-5c-1.1-.3-1.7-1.4-1.4-2.4.3-1.1 1.4-1.7 2.4-1.4l19.7 5.1c1 .2 1.6 1.3 1.4 2.3zm-1.5 11l-19.7-5.1c-1.1-.3-2.2.4-2.4 1.4-.3 1.1.4 2.2 1.4 2.4l19.7 5.1c-1.3-.3 1.8.9 2.4-1.4.3-1-.3-2.1-1.4-2.4zm-5.9 11.7l-13.8-3.6c-1.1-.3-2.2.4-2.4 1.4-.3 1.1.4 2.2 1.4 2.4l13.8 3.6c-1.3-.3 1.8.9 2.4-1.4.3-1-.3-2.1-1.4-2.4zM80 9.007v52.5c0 .9-.6 1.7-1.5 1.9l-38 9.5c-.3.1-.7.1-1 0l-38-9.5c-.9-.2-1.5-1-1.5-1.9v-52.5c0-1.3 1.2-2.3 2.5-1.9l37.5 9.4 37.5-9.4c1.3-.4 2.5.6 2.5 1.9zm-42 11.1l-34-8.5v48.3l34 8.5v-48.3zm38-8.5l-34 8.5v48.3l34-8.5v-48.3zm-5.8 12c-.3-1.1-1.4-1.7-2.4-1.4l-19.7 5.1c-1.1.3-1.7 1.4-1.4 2.4.6 2.5 3.7 1.1 2.4 1.4l19.7-5.1c1.1-.3 1.7-1.4 1.4-2.4zm0 13.4c-.3-1.1-1.4-1.7-2.4-1.4l-19.7 5.1c-1.1.3-1.7 1.4-1.4 2.4.6 2.4 3.7 1.1 2.4 1.4l19.7-5.1c1.1-.3 1.7-1.4 1.4-2.4zm-5.9 14.7c-.3-1.1-1.4-1.7-2.4-1.4l-13.8 3.6c-1.1.3-1.7 1.4-1.4 2.4.6 2.5 3.7 1.1 2.4 1.4l13.8-3.5c1.1-.3 1.7-1.4 1.4-2.5z"/></symbol><symbol id="home" viewBox="0 0 49.794 49.794"><path d="M5.965 29.682v19.236c0 .482.392.876.876.876h20.645V32.376h9.698v17.418h5.77a.877.877 0 0 0 .876-.876V29.682l-18.921-18.84-18.944 18.84zM21.361 40.49H12.61v-8.113h8.751v8.113z"/><path d="M47.665 22.765L24.898 0l-10.74 10.739V6.013a2 2 0 0 0-4 0v8.726l-8.027 8.026a2.5 2.5 0 0 0 1.768 4.268 2.5 2.5 0 0 0 1.768-.73l19.232-19.23 19.23 19.229a2.495 2.495 0 0 0 3.534 0 2.502 2.502 0 0 0 .002-3.537z"/></symbol><symbol id="line-chart" viewBox="0 0 480 480"><g><g><polygon points="448,176 448,416 32,416 32,64 336,64 336,32 0,32 0,448 480,448 480,176 "/></g></g><g><g><path d="M368 32v32h25.12A91.2 91.2 0 0 0 436 53.28L272 217.44l-64-64-112 112-43.68-42.88v44.8L96 310.56l112-112 64 64L458.72 75.84A91.199 91.199 0 0 0 448 118.88V144h32V32H368z"/></g></g></symbol><symbol id="center" viewBox="0 0 512 512"><path d="M464 0H48C21.49 0 0 21.49 0 48v416c0 26.51 21.49 48 48 48h416c26.51 0 48-21.49 48-48V48c0-26.51-21.49-48-48-48zm16 464c0 8.837-7.163 16-16 16H48c-8.837 0-16-7.163-16-16V48c0-8.837 7.163-16 16-16h416c8.837 0 16 7.163 16 16v416z"/><path d="M64 80v64h32V96h48V64H80c-8.837 0-16 7.163-16 16z"/><path d="M416 416h-48v32h64c8.837 0 16-7.163 16-16v-64h-32v48z"/><path d="M432 64h-64v32h48v48h32V80c0-8.837-7.163-16-16-16z"/><path d="M96 368H64v64c0 8.837 7.163 16 16 16h64v-32H96v-48z"/><polygon points="272,208 240,208 240,240 208,240 208,272 240,272 240,304 272,304 272,272 304,272 304,240 272,240 "/></symbol><symbol id="check" viewBox="0 0 360 360"><path d="M230.77 291.289a2.504 2.504 0 0 0-1.734-.699h-98.071c-.646 0-1.269.251-1.734.699l-32.938 31.735a2.504 2.504 0 0 0-.766 1.801v6.929a2.5 2.5 0 0 0 2.5 2.5h163.947a2.5 2.5 0 0 0 2.5-2.5v-6.929a2.5 2.5 0 0 0-.766-1.801l-32.938-31.735z"/><path d="M352.86 25.746H7.142A7.143 7.143 0 0 0 0 32.886v244.958a7.144 7.144 0 0 0 7.142 7.145H352.86a7.142 7.142 0 0 0 7.14-7.145V32.886a7.141 7.141 0 0 0-7.14-7.14zM180 271.775a7.855 7.855 0 0 1-7.852-7.856 7.854 7.854 0 1 1 15.707 0 7.855 7.855 0 0 1-7.855 7.856zm151.266-31.436H28.737V59.68h302.528v180.659z"/><path d="M160.044 198.379a2.044 2.044 0 0 0 2.892 0l87.602-87.601a2.043 2.043 0 0 0 0-2.892l-18.184-18.184c-.769-.769-2.126-.768-2.893 0l-67.972 67.973-30.952-30.953a2.045 2.045 0 0 0-2.893 0l-18.184 18.182a2.043 2.043 0 0 0 0 2.892l50.584 50.583z"/></symbol><symbol id="pinterest-logo" viewBox="0 0 194.755 194.756"><path d="M150.563 20.704C125.042-7.064 81.976-5.207 53.34 16.214c-24.41 18.26-41.657 58.806-21.144 86.398 4.193 5.64 10.337 9.08 17.139 10.477 1.816.373 3.275-.513 3.911-2.221 1.376-3.69 2.844-7.155 3.161-11.106.121-1.507-1.089-2.354-2.346-2.419-18.604-20.433-5.967-45.861 12.163-61.586 16.029-13.901 45.463-26.927 64.303-10.91 13.001 11.053 13.992 31.707 13.369 47.312-.782 19.571-7.62 40.2-27.939 46.425-6.69 2.05-14.431 1.236-18.872-4.655-5.017-6.655-3.408-14.677-1.507-22.016 2.927-11.3 9.864-27.297 3.294-38.475-7.954-13.534-23.975-1.228-28.602 7.886-2.818 5.551-7.894 23.332-.403 27.891-7.96 20.132-13.33 42.256-16.962 63.492-1.631 9.536-3.133 20.03-1.327 29.649.096.51 2.155 7.744 4.215 10.572-.321 1.824 2.37 2.483 3.442 1.048 7.329-9.81 14.836-19.206 18.879-30.913 2.148-6.219 2.946-13.033 4.232-19.469.901-4.508 2.746-9.635 3.213-14.439.029-.005.056-.017.086-.021 6.327 4.861 14.84 8.976 22.358 10.437 11.822 2.297 25.757-2.104 35.413-8.778 1.476-1.021 2.952-2.248 4.375-3.62 4.463-2.973 8.532-6.83 12.01-11.693 20.006-27.975 13.213-70.346-9.238-94.776zm-100.72 81.262c.16.171.328.312.498.436-.106.236-.224.468-.335.702-.24-.313-.492-.617-.737-.928.054-.29.049-.584-.017-.88.202.222.383.448.591.67zM37.422 46.551a69.17 69.17 0 0 0-4.765 10.04 60.068 60.068 0 0 1 4.171-10.768c.252.106.526.173.812.21-.076.171-.144.346-.218.518zm113.746-13.863a3.745 3.745 0 0 0-1.042-.923c-.087-.125-.196-.214-.295-.324-.125-.421-.273-.817-.408-1.228a64.788 64.788 0 0 1 3.232 4.505c-.48-.683-.97-1.361-1.487-2.03z"/></symbol></svg>