<svg xmlns="http://www.w3.org/2000/svg" xmlns:xlink="http://www.w3.org/1999/xlink"><symbol id="icon-alarm" viewBox="0 0 32 32">
	

			<path d="M30.74 10.5C29.16 6.81 26.19 3.84 22.5 2.26C23.5 1.47 24.75 1 26.13 1C29.37 1 32 3.63 32 6.87C32 8.24 31.53 9.5 30.74 10.5ZM30.5 17C30.5 20.85 28.99 24.34 26.54 26.94L28.57 28.97C28.83 29.24 29 29.61 29 30.02C29 30.84 28.34 31.5 27.52 31.5C27.11 31.5 26.74 31.33 26.47 31.07L24.29 28.89C21.94 30.53 19.08 31.5 16 31.5C12.92 31.5 10.07 30.53 7.72 28.9L5.56 31.06C5.29 31.33 4.91 31.5 4.5 31.5C3.67 31.5 3 30.83 3 30C3 29.59 3.17 29.21 3.44 28.94L5.45 26.93C3.01 24.33 1.5 20.85 1.5 17C1.5 8.99 7.99 2.5 16 2.5C24.01 2.5 30.5 8.99 30.5 17ZM16 5.5C9.65 5.5 4.5 10.65 4.5 17C4.5 23.35 9.65 28.5 16 28.5C22.35 28.5 27.5 23.35 27.5 17C27.5 10.65 22.35 5.5 16 5.5ZM22 18.5L16 18.5C15.17 18.5 14.5 17.83 14.5 17L14.5 9C14.5 8.17 15.17 7.5 16 7.5C16.83 7.5 17.5 8.17 17.5 9L17.5 15.5L22 15.5C22.83 15.5 23.5 16.17 23.5 17C23.5 17.83 22.83 18.5 22 18.5ZM1.29 10.71C0.48 9.68 0 8.4 0 7C0 3.69 2.69 1 6 1C7.4 1 8.69 1.48 9.71 2.29C5.93 3.9 2.9 6.93 1.29 10.71Z"/>
	
</symbol><symbol id="icon-book" viewBox="0 0 33 32">
	
	
			<path id="BOOK 2" class="shp0" d="M32.06 25.89L17.59 31.88C17.41 31.96 17.21 32 17 32C16.79 32 16.59 31.96 16.41 31.88L1.94 25.89C1.39 25.67 1 25.13 1 24.5L1 1.5C1 0.67 1.67 0 2.5 0C2.7 0 2.9 0.04 3.07 0.11L3.07 0.11L3.08 0.11C3.08 0.12 3.08 0.12 3.09 0.12L17 5.88L30.91 0.12C30.91 0.12 30.92 0.12 30.92 0.11L30.93 0.11L30.93 0.11C31.1 0.04 31.3 0 31.5 0C32.33 0 33 0.67 33 1.5L33 24.5C33 25.13 32.61 25.67 32.06 25.89ZM15.5 8.5L4 3.74L4 23.5L15.5 28.26L15.5 8.5ZM30 3.74L18.5 8.5L18.5 28.26L30 23.5L30 3.74ZM20.88 10.63L26.38 8.13L26.38 8.13C26.57 8.05 26.78 8 27 8C27.83 8 28.5 8.67 28.5 9.5C28.5 10.11 28.14 10.63 27.62 10.87L27.62 10.87L22.12 13.37L22.12 13.37C21.93 13.45 21.72 13.5 21.5 13.5C20.67 13.5 20 12.83 20 12C20 11.39 20.36 10.87 20.88 10.63ZM20.88 16.13L20.88 16.13L26.38 13.63L26.38 13.63C26.57 13.55 26.78 13.5 27 13.5C27.83 13.5 28.5 14.17 28.5 15C28.5 15.61 28.14 16.13 27.62 16.37L22.12 18.87L22.12 18.86C21.93 18.95 21.72 19 21.5 19C20.67 19 20 18.33 20 17.5C20 16.89 20.36 16.37 20.88 16.13ZM20.88 21.63L20.88 21.63L26.38 19.13L26.38 19.13C26.57 19.05 26.78 19 27 19C27.83 19 28.5 19.67 28.5 20.5C28.5 21.11 28.14 21.63 27.62 21.87L27.62 21.87L22.12 24.37L22.12 24.37C21.93 24.45 21.72 24.5 21.5 24.5C20.67 24.5 20 23.83 20 23C20 22.39 20.36 21.87 20.88 21.63ZM7 8C7.22 8 7.43 8.05 7.62 8.13L7.62 8.13L13.12 10.63L13.12 10.63C13.64 10.87 14 11.39 14 12C14 12.83 13.33 13.5 12.5 13.5C12.28 13.5 12.07 13.45 11.88 13.37L11.88 13.37L6.38 10.87L6.38 10.87C5.86 10.63 5.5 10.11 5.5 9.5C5.5 8.67 6.17 8 7 8ZM7 13.5C7.22 13.5 7.43 13.55 7.62 13.63L7.62 13.63L13.12 16.13L13.12 16.13C13.64 16.37 14 16.89 14 17.5C14 18.33 13.33 19 12.5 19C12.28 19 12.07 18.95 11.88 18.86L11.88 18.87L6.38 16.37L6.38 16.37C5.86 16.13 5.5 15.61 5.5 15C5.5 14.17 6.17 13.5 7 13.5ZM7 19C7.22 19 7.43 19.05 7.62 19.13L7.62 19.13L13.12 21.63L13.12 21.63C13.64 21.87 14 22.39 14 23C14 23.83 13.33 24.5 12.5 24.5C12.28 24.5 12.07 24.45 11.88 24.37L11.88 24.37L6.38 21.87L6.38 21.87C5.86 21.63 5.5 21.11 5.5 20.5C5.5 19.67 6.17 19 7 19Z"/>
	
</symbol><symbol id="icon-cart" viewBox="0 0 20 17"><path d=" M 18.725997924804688 4.662798166275024 C 18.725997924804688 4.662798166275024 18.727256774902344 4.663402318954468 18.727256774902344 4.663402318954468 C 18.727256774902344 4.663402318954468 16.252357482910156 10.163155198097229 16.252357482910156 10.163155198097229 C 16.252357482910156 10.163155198097229 16.252243041992188 10.163155198097229 16.252243041992188 10.163155198097229 C 16.13013458251953 10.434268712997437 15.866119384765625 10.62744653224945 15.554840087890625 10.647685647010803 C 15.554840087890625 10.647685647010803 15.554840087890625 10.647685647010803 15.554840087890625 10.647685647010803 C 15.554840087890625 10.647685647010803 8.427230834960938 11.122700691223145 8.427230834960938 11.122700691223145 C 8.427230834960938 11.122700691223145 8.8389892578125 12.299288034439087 8.8389892578125 12.299288034439087 C 8.8389892578125 12.299288034439087 16.60002899169922 12.299288034439087 16.60002899169922 12.299288034439087 C 17.511207580566406 12.299288034439087 18.249923706054688 13.038468837738037 18.249923706054688 13.949833154678345 C 18.249923706054688 14.861197471618652 17.511207580566406 15.599623084068298 16.60002899169922 15.599623084068298 C 15.688735961914062 15.599623084068298 14.949905395507812 14.861197471618652 14.949905395507812 13.949833154678345 C 14.949905395507812 13.949833154678345 7.249977111816406 13.949833154678345 7.249977111816406 13.949833154678345 C 7.249977111816406 14.861197471618652 6.511260986328125 15.599623084068298 5.599967956542969 15.599623084068298 C 4.6886749267578125 15.599623084068298 3.9499588012695312 14.861197471618652 3.9499588012695312 13.949833154678345 C 3.9499588012695312 13.038468837738037 4.6886749267578125 12.299288034439087 5.599967956542969 12.299288034439087 C 5.599967956542969 12.299288034439087 7.090904235839844 12.299288034439087 7.090904235839844 12.299288034439087 C 7.090904235839844 12.299288034439087 3.9147109985351562 3.2246127128601074 3.9147109985351562 3.2246127128601074 C 3.9147109985351562 3.2246127128601074 2.0249481201171875 3.2246127128601074 2.0249481201171875 3.2246127128601074 C 1.5693588256835938 3.2246127128601074 1.1999435424804688 2.8550223112106323 1.1999435424804688 2.3996422290802 C 1.1999435424804688 1.944262146949768 1.5693588256835938 1.574671745300293 2.0249481201171875 1.574671745300293 C 2.0249481201171875 1.574671745300293 4.499961853027344 1.574671745300293 4.499961853027344 1.574671745300293 C 4.8598785400390625 1.574671745300293 5.1629180908203125 1.8065153360366821 5.2755279541015625 2.128377676010132 C 5.2755279541015625 2.128377676010132 5.278617858886719 2.127169370651245 5.278617858886719 2.127169370651245 C 5.278617858886719 2.127169370651245 5.759040832519531 3.4999552965164185 5.759040832519531 3.4999552965164185 C 5.759040832519531 3.4999552965164185 17.97492218017578 3.4999552965164185 17.97492218017578 3.4999552965164185 C 18.430625915527344 3.4999552965164185 18.7999267578125 3.86894154548645 18.7999267578125 4.324925780296326 C 18.7999267578125 4.445303201675415 18.77257537841797 4.559034943580627 18.725997924804688 4.662798166275024 Z M 6.336509704589844 5.149745225906372 C 6.336509704589844 5.149745225906372 7.861663818359375 9.50689435005188 7.861663818359375 9.50689435005188 C 7.861663818359375 9.50689435005188 14.950935363769531 9.034144878387451 14.950935363769531 9.034144878387451 C 14.950935363769531 9.034144878387451 16.699020385742188 5.149745225906372 16.699020385742188 5.149745225906372 C 16.699020385742188 5.149745225906372 6.336509704589844 5.149745225906372 6.336509704589844 5.149745225906372 Z"/></symbol><symbol id="icon-facebook" viewBox="0 0 13 26">
	
				<path d="M12.09 0.2C12.09 1.68 12.09 4.32 12.09 4.32C12.09 4.32 9.05 4.02 8.29 5.18C7.88 5.82 8.12 7.68 8.09 9.02C9.41 9.02 10.79 9.02 12.11 9.02C11.77 10.58 11.53 11.64 11.28 13C10.13 13 8.06 13 8.06 13L8.06 25.8C8.06 25.8 4.27 25.8 2.48 25.8C2.48 21.85 2.48 17.25 2.48 13.05C1.61 13.05 0.97 13.05 0.11 13.05C0.11 11.57 0.11 10.5 0.11 9.02C0.95 9.02 1.61 9.02 2.45 9.02C2.58 6.07 2.62 3.15 4.08 1.67C5.73 0 7.3 0.2 12.09 0.2Z"/>
		
</symbol><symbol id="icon-graph" viewBox="0 0 33 33">
	<style>
		tspan { white-space:pre }
		.shp0 { fill: #95e1d3 } 
	</style>
	<g id="service">
		<g id="2">
			<path id="LINE GRAPH" class="shp0" d="M30.5 33L1.5 33C0.67 33 0 32.33 0 31.5L0 2.5C0 1.67 0.67 1 1.5 1L30.5 1C31.33 1 32 1.67 32 2.5L32 31.5C32 32.33 31.33 33 30.5 33ZM29 4L3 4L3 30L29 30L29 4ZM5.22 17.24L5.21 17.24L9.21 14.74L9.22 14.74C9.44 14.6 9.71 14.52 10 14.52C10.31 14.52 10.6 14.61 10.84 14.77L10.85 14.77L17.48 19.19L25.11 13.79C25.36 13.61 25.67 13.51 26 13.51C26.83 13.51 27.5 14.18 27.5 15.01C27.5 15.51 27.25 15.95 26.88 16.22L26.88 16.22L18.38 22.22L18.38 22.22C18.13 22.4 17.83 22.51 17.5 22.51C17.18 22.51 16.88 22.4 16.64 22.23L9.98 17.8L6.85 19.75C6.61 19.92 6.31 20.02 6 20.02C5.17 20.02 4.5 19.35 4.5 18.52C4.5 17.98 4.79 17.5 5.22 17.24Z"/>
		</g>
	</g>
</symbol><symbol id="icon-home" viewBox="0 0 33 31">
	<style>
		tspan { white-space:pre }
		.shp0 { fill: #95e1d3 } 
	</style>
	<g id="service">
		<g id="5">
			<path id="HOME" class="shp0" d="M33 16.5C33 17.33 32.33 18 31.5 18C31.1 18 30.75 17.84 30.48 17.59L30.48 17.6L17.04 4.16L17.04 4.16L17 4.12L17 4.12L3.55 17.57L3.55 17.57C3.28 17.83 2.91 18 2.5 18C1.67 18 1 17.33 1 16.5C1 16.07 1.18 15.69 1.46 15.42L15.92 0.96C16.19 0.68 16.58 0.5 17 0.5L17 0.5L17 0.5C17 0.5 17 0.5 17 0.5C17.03 0.5 17.05 0.5 17.08 0.5C17.08 0.5 17.09 0.5 17.09 0.5C17.11 0.5 17.14 0.51 17.16 0.51C17.16 0.51 17.16 0.51 17.16 0.51C17.53 0.55 17.86 0.72 18.1 0.98L18.1 0.98L24 6.88L24 5.5C24 4.67 24.67 4 25.5 4C26.33 4 27 4.67 27 5.5L27 9.88L32.6 15.48L32.59 15.48C32.84 15.75 33 16.1 33 16.5ZM30 19L30 23.5L30 25.5L30 29.5C30 30.33 29.33 31 28.5 31L25.5 31L25.5 19L19.5 19L19.5 31L5.5 31C4.67 31 4 30.33 4 29.5L4 25.5L4 23.5L4 19L17 6L30 19ZM14.5 19L8.5 19L8.5 25L14.5 25L14.5 19Z"/>
		</g>
	</g>
</symbol><symbol id="icon-image" viewBox="0 0 34 32">
	<style>
		tspan { white-space:pre }
		.shp0 { fill: #95e1d3 } 
	</style>
	<g id="service">
		<g id="6">
			<path id="IMAGE" class="shp0" d="M31.5 32L2.5 32C1.67 32 1 31.33 1 30.5L1 1.5C1 0.67 1.67 0 2.5 0L31.5 0C32.33 0 33 0.67 33 1.5L33 30.5C33 31.33 32.33 32 31.5 32ZM30 3L4 3L4 29L30 29L30 3ZM7.5 4.5L13 4.5L13 4.5C13.83 4.5 14.5 5.17 14.5 6C14.5 6.83 13.83 7.5 13 7.5L13 7.5L8.5 7.5L8.5 12L8.5 12C8.5 12.83 7.83 13.5 7 13.5C6.17 13.5 5.5 12.83 5.5 12L5.5 12L5.5 6.5L5.5 6.5L5.5 4.5L7.5 4.5L7.5 4.5ZM5.5 20L5.5 20C5.5 19.17 6.17 18.5 7 18.5C7.83 18.5 8.5 19.17 8.5 20L8.5 20L8.5 24.5L13 24.5L13 24.5C13.83 24.5 14.5 25.17 14.5 26C14.5 26.83 13.83 27.5 13 27.5L13 27.5L7.5 27.5L7.5 27.5L5.5 27.5L5.5 25.5L5.5 25.5L5.5 20ZM21 4.5L21 4.5L26.5 4.5L26.5 4.5L28.5 4.5L28.5 6.5L28.5 6.5L28.5 12L28.5 12C28.5 12.83 27.83 13.5 27 13.5C26.17 13.5 25.5 12.83 25.5 12L25.5 12L25.5 7.5L21 7.5L21 7.5C20.17 7.5 19.5 6.83 19.5 6C19.5 5.17 20.17 4.5 21 4.5ZM21 24.5L21 24.5L25.5 24.5L25.5 20L25.5 20C25.5 19.17 26.17 18.5 27 18.5C27.83 18.5 28.5 19.17 28.5 20L28.5 20L28.5 25.5L28.5 25.5L28.5 27.5L26.5 27.5L26.5 27.5L21 27.5L21 27.5C20.17 27.5 19.5 26.83 19.5 26C19.5 25.17 20.17 24.5 21 24.5Z"/>
		</g>
	</g>
</symbol><symbol id="icon-instagram" viewBox="0 0 26 26">
	<style>
		tspan { white-space:pre }
		.shp0 { fill: #f38181 } 
	</style>
	<g id="our team">
		<g id="1">
			<g id="share">
				<path id="instagram" class="shp0" d="M22.7 25.8L3.5 25.8C1.73 25.8 0.3 24.37 0.3 22.6L0.3 3.4C0.3 1.63 1.73 0.2 3.5 0.2L22.7 0.2C24.47 0.2 25.9 1.63 25.9 3.4L25.9 22.6C25.9 24.37 24.47 25.8 22.7 25.8ZM13.1 8.04C11.1 8.04 9.39 9.22 8.6 10.92L8.6 10.92C8.59 10.94 8.58 10.96 8.58 10.97C8.53 11.08 8.49 11.19 8.45 11.3C8.43 11.35 8.41 11.4 8.39 11.45C8.35 11.56 8.32 11.68 8.29 11.79C8.28 11.84 8.26 11.9 8.25 11.95C8.23 12.07 8.21 12.19 8.19 12.32C8.19 12.37 8.17 12.42 8.17 12.47C8.15 12.64 8.14 12.82 8.14 13C8.14 15.74 10.36 17.96 13.1 17.96C15.84 17.96 18.06 15.74 18.06 13C18.06 12.82 18.05 12.64 18.03 12.47C18.03 12.42 18.01 12.37 18.01 12.32C17.99 12.19 17.97 12.07 17.95 11.95C17.93 11.9 17.92 11.84 17.91 11.79C17.88 11.68 17.85 11.56 17.81 11.45C17.79 11.4 17.77 11.35 17.75 11.3C17.71 11.19 17.67 11.08 17.62 10.97C17.62 10.96 17.61 10.94 17.6 10.92L17.6 10.92C16.81 9.22 15.1 8.04 13.1 8.04ZM23.02 4.36C23.02 3.65 22.45 3.08 21.74 3.08L19.18 3.08C18.47 3.08 17.9 3.65 17.9 4.36L17.9 6.92C17.9 7.63 18.47 8.2 19.18 8.2L21.74 8.2C22.45 8.2 23.02 7.63 23.02 6.92L23.02 4.36ZM23.02 10.92L20.66 10.92C20.84 11.58 20.94 12.28 20.94 13C20.94 17.33 17.43 20.84 13.1 20.84C8.77 20.84 5.26 17.33 5.26 13C5.26 12.28 5.36 11.58 5.54 10.92L3.18 10.92L3.18 21.64C3.18 22.35 3.75 22.92 4.46 22.92L21.74 22.92C22.45 22.92 23.02 22.35 23.02 21.64L23.02 10.92Z"/>
			</g>
		</g>
	</g>
</symbol><symbol id="icon-pc" viewBox="0 0 32 29">
	<style>
		tspan { white-space:pre }
		.shp0 { fill: #95e1d3 } 
	</style>
	<g id="service">
		<g id="3">
			<path id="COMPUTER / OK" class="shp0" d="M30 24L22.5 24L20.5 24L20.5 26.5L22.5 28.5L22.5 29L9.5 29L9.5 28.5L11.5 26.5L11.5 24L9.5 24L2 24C1.17 24 0.5 23.33 0.5 22.5L0.5 2.5C0.5 1.67 1.17 1 2 1L30 1C30.83 1 31.5 1.67 31.5 2.5L31.5 22.5C31.5 23.33 30.83 24 30 24ZM29.5 3L2.5 3L2.5 20L29.5 20L29.5 3ZM13 10C13.41 10 13.79 10.17 14.06 10.44L14.06 10.44L15 11.38L17.94 8.44L17.94 8.44C18.21 8.17 18.59 8 19 8C19.83 8 20.5 8.67 20.5 9.5C20.5 9.91 20.33 10.29 20.06 10.56L20.06 10.56L16.06 14.56L16.06 14.56C15.79 14.83 15.41 15 15 15C14.59 15 14.21 14.83 13.94 14.56L13.94 14.56L11.94 12.56L11.94 12.56C11.67 12.29 11.5 11.91 11.5 11.5C11.5 10.67 12.17 10 13 10Z"/>
		</g>
	</g>
</symbol><symbol id="icon-pinterest" viewBox="0 0 21 26">
	<style>
		tspan { white-space:pre }
		.shp0 { fill: #f38181 } 
	</style>
	<g id="our team">
		<g id="1">
			<g id="share">
				<path id="pinterest" class="shp0" d="M9.05 16.85C8.84 17.69 8.63 18.56 8.41 19.41C8.2 20.26 8.01 21.11 7.7 21.88C7.18 23.17 6.52 24.4 5.65 25.41C5.08 26.07 5.2 25.81 5.03 25.77C4.89 25.74 4.88 25.61 4.86 25.43C4.72 24.41 4.81 23.23 4.86 22.09C4.92 20.78 5.2 19.7 5.45 18.61C5.94 16.55 6.4 14.53 6.89 12.45C6.92 12.31 7.01 12.08 6.98 12.01C6.76 11.43 6.61 10.91 6.55 10.31C6.48 9.61 6.53 8.96 6.69 8.36C6.96 7.3 7.6 6.37 8.58 6.02C9.21 5.81 9.9 5.91 10.32 6.16C10.75 6.41 11.05 6.82 11.18 7.4C11.33 8.02 11.22 8.75 11.1 9.29C10.84 10.51 10.49 11.43 10.17 12.6C10.01 13.19 9.83 13.79 9.98 14.41C10.11 14.99 10.41 15.39 10.83 15.69C11.25 16 11.75 16.17 12.45 16.15C13.68 16.1 14.53 15.32 15.1 14.58C16.01 13.39 16.57 11.79 16.78 9.89C16.84 9.28 16.89 8.57 16.85 7.88C16.76 6.59 16.36 5.56 15.72 4.76C15.11 4 14.25 3.39 13.21 3.05C12.17 2.71 10.73 2.6 9.46 2.82C7.14 3.21 5.51 4.53 4.55 6.35C4.04 7.3 3.71 8.4 3.71 9.76C3.71 10.81 3.97 11.62 4.39 12.26C4.52 12.46 4.71 12.63 4.84 12.86C5.03 13.18 4.82 13.67 4.72 14.02C4.61 14.45 4.6 15.03 4.11 15.04C3.9 15.05 3.64 14.9 3.47 14.8C2.16 14.08 1.37 12.77 1.05 11.06C0.85 10.03 0.85 8.83 1.05 7.83C1.24 6.86 1.59 5.97 1.98 5.25C2.8 3.74 3.99 2.54 5.44 1.68C6.56 1.02 7.82 0.56 9.35 0.34C9.86 0.26 10.38 0.23 10.95 0.21C12.62 0.13 14.14 0.5 15.28 1.01C16.49 1.55 17.45 2.27 18.26 3.16C19.1 4.08 19.71 5.14 20.1 6.47C20.3 7.16 20.49 7.9 20.49 8.76C20.49 9.61 20.31 10.37 20.19 11.13C19.71 13.95 18.37 16.27 16.35 17.58C15.86 17.9 15.27 18.2 14.59 18.39C13.93 18.59 13.17 18.73 12.35 18.68C11.56 18.62 10.91 18.41 10.37 18.1C9.83 17.79 9.37 17.42 9.05 16.85Z"/>
			</g>
		</g>
	</g>
</symbol><symbol id="icon-search" viewBox=" 0 0 20 20">
<g><path d=" M 18.316757202148438 15.982783198356628 C 18.615333557128906 16.28138566017151 18.7999267578125 16.693870902061462 18.7999267578125 17.149855136871338 C 18.7999267578125 18.061219453811646 18.06121063232422 18.79964506626129 17.15003204345703 18.79964506626129 C 16.69432830810547 18.79964506626129 16.281768798828125 18.614925384521484 15.983192443847656 18.316322922706604 C 15.983192443847656 18.316322922706604 15.983192443847656 18.316322922706604 15.983192443847656 18.316322922706604 C 15.983192443847656 18.316322922706604 11.147491455078125 13.480533838272095 11.147491455078125 13.480533838272095 C 10.165130615234375 14.061124563217163 9.023468017578125 14.399601101875305 7.799980163574219 14.399601101875305 C 4.1549224853515625 14.399601101875305 1.1999435424804688 11.444992423057556 1.1999435424804688 7.7996861934661865 C 1.1999435424804688 4.154833078384399 4.1549224853515625 1.199620246887207 7.799980163574219 1.199620246887207 C 11.445037841796875 1.199620246887207 14.39990234375 4.154833078384399 14.39990234375 7.7996861934661865 C 14.39990234375 9.02324640750885 14.0611572265625 10.164792895317078 13.480941772460938 11.14699411392212 C 13.480941772460938 11.14699411392212 18.316757202148438 15.982783198356628 18.316757202148438 15.982783198356628 C 18.316757202148438 15.982783198356628 18.316757202148438 15.982783198356628 18.316757202148438 15.982783198356628 Z M 7.799980163574219 2.8494101762771606 C 5.06610107421875 2.8494101762771606 2.8499526977539062 5.065593242645264 2.8499526977539062 7.7996861934661865 C 2.8499526977539062 10.533628106117249 5.06610107421875 12.749811172485352 7.799980163574219 12.749811172485352 C 10.533744812011719 12.749811172485352 12.749893188476562 10.533628106117249 12.749893188476562 7.7996861934661865 C 12.749893188476562 5.065593242645264 10.533744812011719 2.8494101762771606 7.799980163574219 2.8494101762771606 Z"/></g></symbol><symbol id="icon-twitter" viewBox="0 0 26 22">
	
			
				<path d="M17.51 0.6C19.55 0.56 20.63 1.31 21.66 2.25C22.54 2.17 23.68 1.68 24.35 1.34C24.57 1.22 24.79 1.1 25.01 0.98C24.62 2.02 24.1 2.83 23.3 3.45C23.13 3.59 22.95 3.77 22.73 3.86C22.73 3.86 22.73 3.87 22.73 3.87C23.87 3.86 24.81 3.35 25.7 3.07C25.7 3.07 25.7 3.07 25.7 3.08C25.23 3.82 24.6 4.58 23.92 5.12C23.65 5.34 23.37 5.56 23.1 5.77C23.11 6.98 23.08 8.13 22.86 9.15C21.54 15.04 18.07 19.04 12.57 20.76C10.59 21.37 7.4 21.63 5.14 21.07C4.01 20.79 3 20.47 2.05 20.06C1.52 19.83 1.03 19.57 0.56 19.29C0.41 19.2 0.25 19.1 0.1 19.01C0.61 19.02 1.21 19.16 1.78 19.07C2.29 18.99 2.8 19.01 3.28 18.91C4.47 18.65 5.52 18.3 6.43 17.77C6.87 17.51 7.54 17.21 7.85 16.84C7.26 16.85 6.73 16.71 6.29 16.56C4.59 15.96 3.6 14.85 2.96 13.2C3.47 13.25 4.96 13.39 5.3 13.09C4.65 13.06 4.03 12.68 3.59 12.4C2.22 11.55 1.1 10.12 1.11 7.91C1.29 7.99 1.47 8.08 1.65 8.16C1.99 8.31 2.34 8.39 2.75 8.47C2.93 8.51 3.27 8.61 3.47 8.53C3.46 8.53 3.45 8.53 3.44 8.53C3.18 8.23 2.75 8.02 2.48 7.69C1.61 6.6 0.78 4.92 1.3 2.93C1.44 2.42 1.65 1.97 1.87 1.56C1.88 1.56 1.89 1.57 1.89 1.57C2 1.79 2.22 1.94 2.37 2.12C2.82 2.68 3.37 3.18 3.93 3.62C5.85 5.12 7.58 6.04 10.35 6.72C11.05 6.89 11.87 7.03 12.71 7.03C12.47 6.34 12.55 5.23 12.73 4.56C13.2 2.89 14.22 1.68 15.71 1.04C16.06 0.88 16.46 0.77 16.87 0.68C17.09 0.65 17.3 0.63 17.51 0.6Z"/>
	
</symbol></svg>