<svg version="1.1" xmlns="http://www.w3.org/2000/svg" xmlns:xlink="http://www.w3.org/1999/xlink" width="31" height="40"><defs/><g><path fill="rgb(254,209,54)" stroke="none" paint-order="stroke fill markers" fill-rule="evenodd" d=" M 15.684865474700928 1.6326642036437988 C 20.839355945587158 1.6326642036437988 25.017772674560547 5.288953542709351 25.017772674560547 9.799414038658142 C 25.017772674560547 9.799414038658142 25.017772674560547 29.63208520412445 25.017772674560547 29.63208520412445 C 25.017772674560547 34.14183866977692 20.839355945587158 37.79781377315521 15.684865474700928 37.79781377315521 C 10.530458450317383 37.79781377315521 6.351958274841309 34.14183866977692 6.351958274841309 29.63208520412445 C 6.351958274841309 29.63208520412445 6.351958274841309 9.799414038658142 6.351958274841309 9.799414038658142 C 6.351958274841309 5.288953542709351 10.530458450317383 1.6326642036437988 15.684865474700928 1.6326642036437988 Z M 15.684865474700928 6.2992212772369385 C 18.262110710144043 6.2992212772369385 20.351277351379395 7.866707444190979 20.351277351379395 9.799414038658142 C 20.351277351379395 9.799414038658142 20.351277351379395 17.965142607688904 20.351277351379395 17.965142607688904 C 20.351277351379395 19.898556232452393 18.262110710144043 21.46517825126648 15.684865474700928 21.46517825126648 C 13.107703685760498 21.46517825126648 11.018370151519775 19.898556232452393 11.018370151519775 17.965142607688904 C 11.018370151519775 17.965142607688904 11.018370151519775 9.799414038658142 11.018370151519775 9.799414038658142 C 11.018370151519775 7.866707444190979 13.107703685760498 6.2992212772369385 15.684865474700928 6.2992212772369385 Z M 5.185376167297363 19.13229250907898 C 5.185376167297363 19.13229250907898 26.184438228607178 19.13229250907898 26.184438228607178 19.13229250907898 C 28.117393016815186 19.13229250907898 29.6842679977417 20.69899308681488 29.6842679977417 22.63240671157837 C 29.6842679977417 22.63240671157837 29.6842679977417 35.464770913124084 29.6842679977417 35.464770913124084 C 29.6842679977417 37.39747750759125 28.117393016815186 38.964885115623474 26.184438228607178 38.964885115623474 C 26.184438228607178 38.964885115623474 5.185376167297363 38.964885115623474 5.185376167297363 38.964885115623474 C 3.2524213790893555 38.964885115623474 1.6854629516601562 37.39747750759125 1.6854629516601562 35.464770913124084 C 1.6854629516601562 35.464770913124084 1.6854629516601562 22.63240671157837 1.6854629516601562 22.63240671157837 C 1.6854629516601562 20.69899308681488 3.2524213790893555 19.13229250907898 5.185376167297363 19.13229250907898 Z M 15.684865474700928 24.965371012687683 C 16.973613262176514 24.965371012687683 18.018113136291504 26.00989043712616 18.018113136291504 27.29802107810974 C 18.018113136291504 27.29802107810974 18.018113136291504 33.131099581718445 18.018113136291504 33.131099581718445 C 18.018113136291504 34.42072284221649 16.973613262176514 35.464770913124084 15.684865474700928 35.464770913124084 C 14.396284580230713 35.464770913124084 13.351701259613037 34.42072284221649 13.351701259613037 33.131099581718445 C 13.351701259613037 33.131099581718445 13.351701259613037 27.29802107810974 13.351701259613037 27.29802107810974 C 13.351701259613037 26.00989043712616 14.396284580230713 24.965371012687683 15.684865474700928 24.965371012687683 Z M 15.684865474700928 22.63240671157837 C 18.262110710144043 22.63240671157837 20.351277351379395 24.721681237220764 20.351277351379395 27.29802107810974 C 20.351277351379395 29.875303626060486 18.262110710144043 31.96497094631195 15.684865474700928 31.96497094631195 C 13.107703685760498 31.96497094631195 11.018370151519775 29.875303626060486 11.018370151519775 27.29802107810974 C 11.018370151519775 24.721681237220764 13.107703685760498 22.63240671157837 15.684865474700928 22.63240671157837 Z"/></g></svg>