<svg version="1.1" xmlns="http://www.w3.org/2000/svg" xmlns:xlink="http://www.w3.org/1999/xlink" width="42" height="42"><defs/><g><path fill="rgb(254,209,54)" stroke="none" paint-order="stroke fill markers" fill-rule="evenodd" d=" M 4.508257865905762 18.33104658126831 C 4.508257865905762 18.33104658126831 37.54814958572388 18.33104658126831 37.54814958572388 18.33104658126831 C 37.54814958572388 18.33104658126831 36.277342796325684 40.35771131515503 36.277342796325684 40.35771131515503 C 36.277342796325684 40.35771131515503 5.779064655303955 40.35771131515503 5.779064655303955 40.35771131515503 C 5.779064655303955 40.35771131515503 4.508257865905762 18.33104658126831 4.508257865905762 18.33104658126831 Z M 5.196691513061523 11.447792410850525 C 5.196691513061523 11.447792410850525 36.8597993850708 11.447792410850525 36.8597993850708 11.447792410850525 C 38.76062726974487 11.447792410850525 40.30155038833618 12.988489985466003 40.30155038833618 14.889144539833069 C 40.30155038833618 16.789641976356506 38.76062726974487 18.33104658126831 36.8597993850708 18.33104658126831 C 36.8597993850708 18.33104658126831 5.196691513061523 18.33104658126831 5.196691513061523 18.33104658126831 C 3.295863628387451 18.33104658126831 1.7549405097961426 16.789641976356506 1.7549405097961426 14.889144539833069 C 1.7549405097961426 12.988489985466003 3.295863628387451 11.447792410850525 5.196691513061523 11.447792410850525 Z M 3.131640911102295 18.33104658126831 C 3.131640911102295 18.33104658126831 38.924766540527344 18.33104658126831 38.924766540527344 18.33104658126831 C 38.924766540527344 18.33104658126831 38.924766540527344 19.707398891448975 38.924766540527344 19.707398891448975 C 38.924766540527344 19.707398891448975 3.131640911102295 19.707398891448975 3.131640911102295 19.707398891448975 C 3.131640911102295 19.707398891448975 3.131640911102295 18.33104658126831 3.131640911102295 18.33104658126831 Z M 21.028162002563477 25.214457869529724 C 21.788609981536865 25.214457869529724 22.40486240386963 25.83035981655121 22.40486240386963 26.590574502944946 C 22.40486240386963 26.590574502944946 22.40486240386963 34.850966572761536 22.40486240386963 34.850966572761536 C 22.40486240386963 35.61118125915527 21.788609981536865 36.227633118629456 21.028162002563477 36.227633118629456 C 20.267964363098145 36.227633118629456 19.65154504776001 35.61118125915527 19.65154504776001 34.850966572761536 C 19.65154504776001 34.850966572761536 19.65154504776001 26.590574502944946 19.65154504776001 26.590574502944946 C 19.65154504776001 25.83035981655121 20.267964363098145 25.214457869529724 21.028162002563477 25.214457869529724 Z M 29.288280963897705 25.214457869529724 C 30.048478603363037 25.214457869529724 30.664897918701172 25.83035981655121 30.664897918701172 26.590574502944946 C 30.664897918701172 26.590574502944946 30.664897918701172 34.850966572761536 30.664897918701172 34.850966572761536 C 30.664897918701172 35.61118125915527 30.048478603363037 36.227633118629456 29.288280963897705 36.227633118629456 C 28.527916431427002 36.227633118629456 27.911497116088867 35.61118125915527 27.911497116088867 34.850966572761536 C 27.911497116088867 34.850966572761536 27.911497116088867 26.590574502944946 27.911497116088867 26.590574502944946 C 27.911497116088867 25.83035981655121 28.527916431427002 25.214457869529724 29.288280963897705 25.214457869529724 Z M 12.768293380737305 25.214457869529724 C 13.528491020202637 25.214457869529724 14.144910335540771 25.83035981655121 14.144910335540771 26.590574502944946 C 14.144910335540771 26.590574502944946 14.144910335540771 34.850966572761536 14.144910335540771 34.850966572761536 C 14.144910335540771 35.61118125915527 13.528491020202637 36.227633118629456 12.768293380737305 36.227633118629456 C 12.007928848266602 36.227633118629456 11.391592979431152 35.61118125915527 11.391592979431152 34.850966572761536 C 11.391592979431152 34.850966572761536 11.391592979431152 26.590574502944946 11.391592979431152 26.590574502944946 C 11.391592979431152 25.83035981655121 12.007928848266602 25.214457869529724 12.768293380737305 25.214457869529724 Z M 24.814046382904053 2.640944480895996 C 26.130832195281982 1.8803369998931885 27.81478261947632 2.3315008878707886 28.575063705444336 3.648462653160095 C 28.575063705444336 3.648462653160095 32.70508146286011 10.802195191383362 32.70508146286011 10.802195191383362 C 33.46527910232544 12.119156956672668 33.01425075531006 13.802988886833191 31.697298049926758 14.563203573226929 C 30.380345344543457 15.323575377464294 28.696478366851807 14.87194013595581 27.936113834381104 13.554978370666504 C 27.936113834381104 13.554978370666504 23.806262969970703 6.402109980583191 23.806262969970703 6.402109980583191 C 23.0458984375 5.085148215293884 23.497010231018066 3.4016305208206177 24.814046382904053 2.640944480895996 Z M 17.242361068725586 2.640944480895996 C 15.92549180984497 1.8803369998931885 14.24162483215332 2.3315008878707886 13.481176853179932 3.648462653160095 C 13.481176853179932 3.648462653160095 9.351242542266846 10.802195191383362 9.351242542266846 10.802195191383362 C 8.590961456298828 12.119156956672668 9.042073249816895 13.802988886833191 10.35910940170288 14.563203573226929 C 11.675978660583496 15.323575377464294 13.359845638275146 14.87194013595581 14.12021017074585 13.554978370666504 C 14.12021017074585 13.554978370666504 18.25006103515625 6.402109980583191 18.25006103515625 6.402109980583191 C 19.010425567626953 5.085148215293884 18.5592303276062 3.4016305208206177 17.242361068725586 2.640944480895996 Z"/></g></svg>