<svg version="1.1" xmlns="http://www.w3.org/2000/svg" xmlns:xlink="http://www.w3.org/1999/xlink" width="43" height="37"><defs/><g><path fill="rgb(254,209,54)" stroke="none" paint-order="stroke fill markers" fill-rule="evenodd" d=" M 8.356436252593994 1.900063395500183 C 8.356436252593994 1.900063395500183 35.2636775970459 1.900063395500183 35.2636775970459 1.900063395500183 C 37.49270057678223 1.900063395500183 39.29981803894043 3.7069185972213745 39.29981803894043 5.935870885848999 C 39.29981803894043 5.935870885848999 39.29981803894043 23.425679326057434 39.29981803894043 23.425679326057434 C 39.29981803894043 25.654553055763245 37.49270057678223 27.461722493171692 35.2636775970459 27.461722493171692 C 35.2636775970459 27.461722493171692 8.356436252593994 27.461722493171692 8.356436252593994 27.461722493171692 C 6.127496719360352 27.461722493171692 4.320379257202148 25.654553055763245 4.320379257202148 23.425679326057434 C 4.320379257202148 23.425679326057434 4.320379257202148 5.935870885848999 4.320379257202148 5.935870885848999 C 4.320379257202148 3.7069185972213745 6.127496719360352 1.900063395500183 8.356436252593994 1.900063395500183 Z M 4.320379257202148 24.771079421043396 C 4.320379257202148 24.771079421043396 8.356436252593994 24.771079421043396 8.356436252593994 24.771079421043396 C 8.356436252593994 24.771079421043396 8.356436252593994 27.461722493171692 8.356436252593994 27.461722493171692 C 8.356436252593994 27.461722493171692 4.320379257202148 27.461722493171692 4.320379257202148 27.461722493171692 C 4.320379257202148 27.461722493171692 4.320379257202148 24.771079421043396 4.320379257202148 24.771079421043396 Z M 35.2636775970459 24.771079421043396 C 35.2636775970459 24.771079421043396 39.29981803894043 24.771079421043396 39.29981803894043 24.771079421043396 C 39.29981803894043 24.771079421043396 39.29981803894043 27.461722493171692 39.29981803894043 27.461722493171692 C 39.29981803894043 27.461722493171692 35.2636775970459 27.461722493171692 35.2636775970459 27.461722493171692 C 35.2636775970459 27.461722493171692 35.2636775970459 24.771079421043396 35.2636775970459 24.771079421043396 Z M 8.356436252593994 5.935870885848999 C 8.356436252593994 5.935870885848999 35.2636775970459 5.935870885848999 35.2636775970459 5.935870885848999 C 35.2636775970459 5.935870885848999 35.2636775970459 30.151972770690918 35.2636775970459 30.151972770690918 C 35.2636775970459 30.151972770690918 8.356436252593994 30.151972770690918 8.356436252593994 30.151972770690918 C 8.356436252593994 30.151972770690918 8.356436252593994 5.935870885848999 8.356436252593994 5.935870885848999 Z M 4.320379257202148 30.151972770690918 C 4.320379257202148 30.151972770690918 39.29981803894043 30.151972770690918 39.29981803894043 30.151972770690918 C 40.78574991226196 30.151972770690918 41.99055051803589 31.357145190238953 41.99055051803589 32.84332287311554 C 41.99055051803589 34.32910776138306 39.440425395965576 35.53388738632202 37.95441007614136 35.53388738632202 C 37.95441007614136 35.53388738632202 5.665787220001221 35.53388738632202 5.665787220001221 35.53388738632202 C 4.179688453674316 35.53388738632202 1.6296467781066895 34.32910776138306 1.6296467781066895 32.84332287311554 C 1.6296467781066895 31.357145190238953 2.8344473838806152 30.151972770690918 4.320379257202148 30.151972770690918 Z M 17.774041652679443 32.84332287311554 C 17.774041652679443 32.84332287311554 25.84623908996582 32.84332287311554 25.84623908996582 32.84332287311554 C 26.58924674987793 32.84332287311554 27.191647052764893 33.14436066150665 27.191647052764893 33.515708684921265 C 27.191647052764893 33.88705670833588 26.58924674987793 34.188408732414246 25.84623908996582 34.188408732414246 C 25.84623908996582 34.188408732414246 17.774041652679443 34.188408732414246 17.774041652679443 34.188408732414246 C 17.03095054626465 34.188408732414246 16.428800582885742 33.88705670833588 16.428800582885742 33.515708684921265 C 16.428800582885742 33.14436066150665 17.03095054626465 32.84332287311554 17.774041652679443 32.84332287311554 Z M 12.776680946350098 17.68396484851837 C 12.776680946350098 17.68396484851837 14.670916557312012 15.78079640865326 14.670916557312012 15.78079640865326 C 15.193875789642334 15.255630016326904 16.041942596435547 15.255630016326904 16.564985275268555 15.78079640865326 C 16.564985275268555 15.78079640865326 21.300490856170654 20.53808903694153 21.300490856170654 20.53808903694153 C 21.823450088500977 21.063491106033325 21.823450088500977 21.914912700653076 21.300490856170654 22.44023621082306 C 21.300490856170654 22.44023621082306 19.406338691711426 24.34277617931366 19.406338691711426 24.34277617931366 C 18.883129119873047 24.868178248405457 18.03514575958252 24.868178248405457 17.51210308074951 24.34277617931366 C 17.51210308074951 24.34277617931366 12.776680946350098 19.586504817008972 12.776680946350098 19.586504817008972 C 12.25363826751709 19.06118130683899 12.25363826751709 18.209681153297424 12.776680946350098 17.68396484851837 Z M 28.944440841674805 10.237050414085388 C 28.944440841674805 10.237050414085388 30.83867645263672 12.139197587966919 30.83867645263672 12.139197587966919 C 31.36163568496704 12.664599657058716 31.36163568496704 13.516728281974792 30.83867645263672 14.042051792144775 C 30.83867645263672 14.042051792144775 20.420630931854248 24.506335854530334 20.420630931854248 24.506335854530334 C 19.89758825302124 25.03173792362213 19.049604892730713 25.03173792362213 18.526395320892334 24.506335854530334 C 18.526395320892334 24.506335854530334 16.63232660293579 22.603795886039734 16.63232660293579 22.603795886039734 C 16.109283924102783 22.078158140182495 16.109283924102783 21.226343750953674 16.63232660293579 20.701334476470947 C 16.63232660293579 20.701334476470947 27.05020523071289 10.237050414085388 27.05020523071289 10.237050414085388 C 27.5732479095459 9.711334109306335 28.421398162841797 9.711334109306335 28.944440841674805 10.237050414085388 Z"/></g></svg>