<svg aria-hidden="true" style="position: absolute; width: 0; height: 0; overflow: hidden;" version="1.1" xmlns="http://www.w3.org/2000/svg" xmlns:xlink="http://www.w3.org/1999/xlink">
<defs>
<symbol id="icon-Basket" viewBox="0 0 32 32">
<title>icon-Basket</title>
<path d="M3.435 13.966c0 0 0.968 16.782 0.968 16.782s23.237 0 23.237 0c0 0 0.968-16.782 0.968-16.782s-25.173 0-25.173 0zM3.959 8.722c0 0 24.124 0 24.124 0 1.448 0 2.622 1.174 2.622 2.622s-1.174 2.622-2.622 2.622c0 0-24.124 0-24.124 0-1.448 0-2.622-1.174-2.622-2.622s1.174-2.622 2.622-2.622zM2.386 13.966c0 0 27.271 0 27.271 0s0 1.049 0 1.049c0 0-27.271 0-27.271 0s0-1.049 0-1.049zM16.021 19.211c0.579 0 1.049 0.469 1.049 1.048 0 0 0 6.294 0 6.294 0 0.579-0.47 1.049-1.049 1.049s-1.049-0.47-1.049-1.049c0 0 0-6.294 0-6.294 0-0.579 0.47-1.048 1.049-1.048zM22.315 19.211c0.579 0 1.049 0.469 1.049 1.048 0 0 0 6.294 0 6.294 0 0.579-0.47 1.049-1.049 1.049s-1.049-0.47-1.049-1.049c0 0 0-6.294 0-6.294 0-0.579 0.47-1.048 1.049-1.048zM9.728 19.211c0.579 0 1.049 0.469 1.049 1.048 0 0 0 6.294 0 6.294 0 0.579-0.47 1.049-1.049 1.049s-1.049-0.47-1.049-1.049c0 0 0-6.294 0-6.294 0-0.579 0.47-1.048 1.049-1.048zM18.906 2.012c-1.003 0.58-1.347 1.862-0.768 2.866 0 0 3.147 5.45 3.147 5.45 0.579 1.003 1.862 1.348 2.866 0.768s1.347-1.862 0.768-2.866c0 0-3.147-5.45-3.147-5.45-0.579-1.003-1.862-1.347-2.866-0.768zM13.137 2.012c-1.003-0.579-2.286-0.236-2.866 0.768 0 0-3.147 5.45-3.147 5.45-0.579 1.003-0.236 2.286 0.768 2.866s2.286 0.235 2.866-0.768c0 0 3.147-5.45 3.147-5.45 0.579-1.003 0.236-2.286-0.768-2.866z"></path>
</symbol>
<symbol id="icon-Laptop" viewBox="0 0 37 32">
<title>icon-Laptop</title>
<path d="M7.227 1.643c-1.928 0-3.491 1.563-3.491 3.49 0 0 0 15.126 0 15.126 0 1.928 1.563 3.491 3.491 3.491 0 0 23.271 0 23.271 0 1.928 0 3.491-1.563 3.491-3.491 0 0 0-15.126 0-15.126 0-1.928-1.563-3.49-3.491-3.49 0 0-23.271 0-23.271 0zM3.737 21.424c0 0 3.491 0 3.491 0s0 2.327 0 2.327c0 0-3.491 0-3.491 0s0-2.327 0-2.327zM30.498 21.424c0 0 3.491 0 3.491 0s0 2.327 0 2.327c0 0-3.491 0-3.491 0s0-2.327 0-2.327zM7.227 5.134c0 0 23.271 0 23.271 0s0 20.944 0 20.944c0 0-23.271 0-23.271 0s0-20.944 0-20.944zM3.737 26.077c-1.285 0-2.327 1.042-2.327 2.328s2.205 2.327 3.491 2.327c0 0 27.925 0 27.925 0 1.285 0 3.491-1.042 3.491-2.327s-1.042-2.328-2.327-2.328c0 0-30.253 0-30.253 0zM15.372 28.405c0 0 6.981 0 6.981 0 0.643 0 1.164 0.26 1.164 0.582s-0.521 0.582-1.164 0.582c0 0-6.981 0-6.981 0-0.643 0-1.163-0.261-1.163-0.582s0.521-0.582 1.163-0.582zM11.050 15.294c-0.452 0.455-0.452 1.191 0 1.645 0 0 4.095 4.114 4.095 4.114 0.452 0.454 1.186 0.454 1.638 0 0 0 1.638-1.645 1.638-1.645 0.452-0.454 0.452-1.191 0-1.645 0 0-4.096-4.114-4.096-4.114-0.452-0.454-1.186-0.454-1.638 0 0 0-1.638 1.646-1.638 1.646zM25.033 8.854c0 0 1.638 1.645 1.638 1.645 0.452 0.454 0.452 1.191 0 1.646 0 0-9.010 9.050-9.010 9.050-0.452 0.454-1.186 0.454-1.638 0 0 0-1.638-1.645-1.638-1.645-0.452-0.455-0.452-1.191 0-1.645 0 0 9.010-9.050 9.010-9.050 0.452-0.455 1.186-0.455 1.638 0z"></path>
</symbol>
<symbol id="icon-Locked" viewBox="0 0 25 32">
<title>icon-Locked</title>
<path d="M12.548 1.306c-4.124 0-7.466 2.925-7.466 6.533 0 0 0 15.866 0 15.866 0 3.608 3.343 6.533 7.466 6.533s7.466-2.925 7.466-6.533c0 0 0-15.866 0-15.866 0-3.608-3.343-6.533-7.466-6.533zM12.548 5.039c2.062 0 3.733 1.254 3.733 2.8 0 0 0 6.533 0 6.533 0 1.547-1.671 2.8-3.733 2.8s-3.733-1.253-3.733-2.8c0 0 0-6.533 0-6.533 0-1.546 1.671-2.8 3.733-2.8zM4.148 15.306c0 0 16.799 0 16.799 0 1.546 0 2.8 1.253 2.8 2.8 0 0 0 10.266 0 10.266 0 1.546-1.253 2.8-2.8 2.8 0 0-16.799 0-16.799 0-1.546 0-2.8-1.254-2.8-2.8 0 0 0-10.266 0-10.266 0-1.547 1.254-2.8 2.8-2.8zM12.548 19.972c-1.031 0-1.867 0.836-1.867 1.866 0 0 0 4.666 0 4.666 0 1.032 0.836 1.867 1.867 1.867s1.867-0.835 1.867-1.867c0 0 0-4.666 0-4.666 0-1.030-0.836-1.866-1.867-1.866zM12.548 18.106c2.062 0 3.733 1.671 3.733 3.732s-1.671 3.734-3.733 3.734c-2.062 0-3.733-1.672-3.733-3.734s1.671-3.733 3.733-3.733z"></path>
</symbol>
</defs>
</svg>
